<svg xmlns="http://www.w3.org/2000/svg" width="21" height="20" viewBox="0 0 21 20">
    <path fill="#8B8B8B" fill-rule="evenodd" d="M10.447.465c2.81 0 3.162.01 4.266.058 1.101.048 1.854.213 2.512.454.68.25 1.257.583 1.832 1.126a4.767 4.767 0 0 1 1.194 1.73c.256.62.43 1.33.48 2.37.051 1.04.063 1.373.063 4.024 0 2.652-.012 2.984-.062 4.025-.05 1.04-.225 1.749-.481 2.37a4.767 4.767 0 0 1-1.194 1.73 5.113 5.113 0 0 1-1.832 1.125c-.658.242-1.41.407-2.512.454-1.104.047-1.456.059-4.266.059s-3.163-.012-4.266-.059c-1.102-.047-1.854-.212-2.512-.454a5.113 5.113 0 0 1-1.833-1.126 4.767 4.767 0 0 1-1.193-1.729c-.256-.621-.43-1.33-.481-2.37C.112 13.211.1 12.88.1 10.227c0-2.651.012-2.984.062-4.025.05-1.039.225-1.749.48-2.37a4.767 4.767 0 0 1 1.194-1.729A5.113 5.113 0 0 1 3.67.977C4.327.736 5.08.571 6.181.523 7.284.476 7.637.465 10.447.465zm0 1.759c-2.763 0-3.09.01-4.181.057-1.01.043-1.557.202-1.922.336a3.23 3.23 0 0 0-1.19.73 3.014 3.014 0 0 0-.773 1.123c-.142.344-.31.86-.357 1.812-.05 1.03-.06 1.338-.06 3.945 0 2.607.01 2.916.06 3.945.046.952.215 1.469.357 1.813.187.456.412.78.774 1.122a3.23 3.23 0 0 0 1.19.73c.364.134.912.293 1.92.337 1.092.047 1.419.057 4.182.057 2.763 0 3.09-.01 4.181-.057 1.009-.044 1.557-.203 1.921-.336a3.23 3.23 0 0 0 1.19-.73c.362-.342.586-.667.774-1.123.142-.344.31-.861.356-1.813.05-1.03.06-1.338.06-3.945 0-2.607-.01-2.915-.06-3.945-.046-.952-.214-1.468-.356-1.812a3.014 3.014 0 0 0-.774-1.123 3.23 3.23 0 0 0-1.19-.73c-.364-.134-.912-.293-1.92-.336-1.092-.047-1.42-.057-4.182-.057zm0 2.99c2.934 0 5.313 2.244 5.313 5.013 0 2.769-2.379 5.013-5.313 5.013-2.935 0-5.314-2.244-5.314-5.013 0-2.769 2.38-5.013 5.314-5.013zm0 8.267c1.905 0 3.449-1.457 3.449-3.254s-1.544-3.254-3.45-3.254c-1.904 0-3.448 1.457-3.448 3.254s1.544 3.254 3.449 3.254zm6.765-8.465c0 .647-.556 1.171-1.242 1.171-.685 0-1.241-.524-1.241-1.171s.556-1.172 1.241-1.172c.686 0 1.242.525 1.242 1.172z" opacity=".797"/>
</svg>
