<svg xmlns="http://www.w3.org/2000/svg" width="25" height="20" viewBox="0 0 25 20">
    <path fill="#8B8B8B" fill-rule="evenodd" d="M21.977 3.033A4.896 4.896 0 0 0 24.184.347c-.97.556-2.043.96-3.189 1.177a5.086 5.086 0 0 0-3.662-1.532c-2.77 0-5.017 2.174-5.017 4.855 0 .38.043.75.13 1.106C8.273 5.75 4.576 3.819 2.1.878a4.729 4.729 0 0 0-.679 2.443c0 1.684.886 3.17 2.233 4.041a5.151 5.151 0 0 1-2.274-.605v.06c0 2.353 1.73 4.316 4.027 4.76-.42.114-.864.171-1.322.171-.323 0-.64-.03-.945-.086.639 1.928 2.491 3.332 4.688 3.37a10.283 10.283 0 0 1-6.233 2.08c-.405 0-.805-.023-1.197-.067a14.577 14.577 0 0 0 7.693 2.18c9.232 0 14.278-7.398 14.278-13.814 0-.211-.004-.423-.013-.63A9.976 9.976 0 0 0 24.86 2.27c-.899.386-1.867.647-2.882.764z" opacity=".797"/>
</svg>
